<svg xmlns="http://www.w3.org/2000/svg" width="770" height="730" viewBox="0 0 770 730">
  <g id="Group_1802" data-name="Group 1802" transform="translate(-548 -190)">
    <rect id="scott-webb-53958-unsplash" width="770" height="730" rx="10" transform="translate(548 190)" fill="#fff"/>
    <g id="Group_1317" data-name="Group 1317" transform="translate(55.238 108.835)">
      <path id="Path_1004" data-name="Path 1004" d="M99.954,141.927l-1.175-9.845a1.953,1.953,0,0,0-2.138-1.712,7.2,7.2,0,0,1-1.707-14.3,1.953,1.953,0,0,0,1.675-2.167l-1.175-9.845a6.412,6.412,0,0,0-7.127-5.607l-68.6,8.188A6.37,6.37,0,0,0,15.457,109H6.413A6.42,6.42,0,0,0,0,115.413v9.915a1.953,1.953,0,0,0,1.92,1.953,7.2,7.2,0,0,1,0,14.4A1.953,1.953,0,0,0,0,143.637v9.915a6.42,6.42,0,0,0,6.413,6.412H75.5a6.42,6.42,0,0,0,6.413-6.413v-3.014l12.433-1.484a6.412,6.412,0,0,0,5.607-7.127ZM78.008,147.07v6.482a2.509,2.509,0,0,1-2.506,2.506H63.391V152.4a1.953,1.953,0,1,0-3.906,0v3.662H6.413a2.509,2.509,0,0,1-2.506-2.506v-8.159a11.043,11.043,0,0,0,5.808-3.117,11.107,11.107,0,0,0,0-15.586,11.044,11.044,0,0,0-5.808-3.117v-8.16a2.509,2.509,0,0,1,2.506-2.506H59.485V136.69a1.953,1.953,0,1,0,3.906,0V112.907H75.5a2.509,2.509,0,0,1,2.506,2.506v8.16a11.113,11.113,0,0,0,0,21.82v1.678Zm17.549-2.834a2.49,2.49,0,0,1-1.673.939L81.914,146.6v-2.967a1.953,1.953,0,0,0-1.92-1.953,7.2,7.2,0,0,1,0-14.4,1.953,1.953,0,0,0,1.92-1.953v-9.915A6.42,6.42,0,0,0,75.5,109H32.87l55.9-6.672a2.506,2.506,0,0,1,2.786,2.191l.967,8.1a11.113,11.113,0,0,0,2.586,21.666l.967,8.1A2.49,2.49,0,0,1,95.556,144.236Z" transform="translate(827.762 192.597)" fill="#f5fafa"/>
      <path id="Path_1005" data-name="Path 1005" d="M308.918,326.039a2.3,2.3,0,0,0-.208-.389,2.164,2.164,0,0,0-.281-.344,2.27,2.27,0,0,0-.344-.281,2.243,2.243,0,0,0-.391-.208,2.293,2.293,0,0,0-.423-.131,2.218,2.218,0,0,0-1.308.131,2.294,2.294,0,0,0-.733.489,2.173,2.173,0,0,0-.283.344,2.294,2.294,0,0,0-.208.389,2.361,2.361,0,0,0-.129.425,2.286,2.286,0,0,0,0,.882,2.286,2.286,0,0,0,.129.423,2.233,2.233,0,0,0,.208.391,2.247,2.247,0,0,0,.627.624,2.3,2.3,0,0,0,.389.208,2.168,2.168,0,0,0,.423.129,2.184,2.184,0,0,0,.885,0,2.122,2.122,0,0,0,.423-.129,2.406,2.406,0,0,0,.391-.208,2.271,2.271,0,0,0,.344-.281,2.164,2.164,0,0,0,.281-.344,2.236,2.236,0,0,0,.208-.391,2.286,2.286,0,0,0,.129-.423,2.176,2.176,0,0,0,0-.882A2.361,2.361,0,0,0,308.918,326.039Z" transform="translate(582.297 10.07)" fill="#f5fafa"/>
      <path id="Path_1006" data-name="Path 1006" d="M122.974,217.218l-9.938-1.444-4.444-9a2.262,2.262,0,0,0-4.057,0l-3.91,7.923-.534,1.082-3.762.547-6.176.9a2.262,2.262,0,0,0-1.254,3.859l5.985,5.834,1.206,1.176-.684,3.989-1.013,5.908a2.262,2.262,0,0,0,3.282,2.385l8.889-4.673,8.888,4.673a2.262,2.262,0,0,0,3.282-2.385l-1.7-9.9,7.191-7.009a2.262,2.262,0,0,0-1.254-3.859Zm-9.947,8.458a2.262,2.262,0,0,0-.651,2l1.124,6.552-5.884-3.093a2.262,2.262,0,0,0-2.105,0l-5.884,3.093,1.124-6.552a2.29,2.29,0,0,0-.651-2l-2.788-2.717-1.972-1.923,2.274-.331,4.3-.626c.068-.01.134-.026.2-.042a2.26,2.26,0,0,0,1.5-1.2l2.942-5.961,2.942,5.961a2.262,2.262,0,0,0,1.7,1.237l6.578.956Z" transform="translate(755.511 103.197)" fill="#f5fafa"/>
    </g>
    <g id="Group_1318" data-name="Group 1318" transform="translate(29.051 5.622)">
      <path id="Path_1007" data-name="Path 1007" d="M121.992,216.887l-9.657-1.4-4.319-8.751a2.2,2.2,0,0,0-3.943,0l-3.8,7.7-.519,1.051-3.655.531-6,.872a2.2,2.2,0,0,0-1.218,3.75l5.816,5.669,1.172,1.143-.665,3.876-.985,5.741a2.2,2.2,0,0,0,3.19,2.318l8.638-4.541,8.637,4.541a2.2,2.2,0,0,0,3.19-2.318l-1.65-9.618,6.988-6.811a2.2,2.2,0,0,0-1.218-3.75Zm-9.666,8.219a2.2,2.2,0,0,0-.632,1.946l1.092,6.367-5.718-3.006a2.2,2.2,0,0,0-2.046,0L99.3,233.419l1.092-6.367a2.225,2.225,0,0,0-.632-1.946l-2.709-2.64L95.138,220.6l2.21-.321,4.183-.608c.066-.01.13-.025.194-.04a2.2,2.2,0,0,0,1.461-1.162l2.859-5.793,2.859,5.793a2.2,2.2,0,0,0,1.655,1.2l6.393.929Z" transform="translate(974.486 424.843)" fill="#f5fafa"/>
      <path id="Path_1008" data-name="Path 1008" d="M107.1,211.868l-5.4-.784-2.414-4.891a1.229,1.229,0,0,0-2.2,0l-2.124,4.3-.29.588-2.043.3-3.354.487a1.229,1.229,0,0,0-.681,2.1l3.251,3.169.655.639-.372,2.167-.55,3.209a1.229,1.229,0,0,0,1.783,1.3l4.828-2.538,4.828,2.538a1.229,1.229,0,0,0,1.783-1.3l-.922-5.376,3.906-3.807a1.229,1.229,0,0,0-.681-2.1Zm-5.4,4.594a1.229,1.229,0,0,0-.353,1.088l.61,3.559-3.2-1.68a1.229,1.229,0,0,0-1.144,0l-3.2,1.68.61-3.559a1.243,1.243,0,0,0-.353-1.088l-1.514-1.476-1.071-1.044,1.235-.18,2.338-.34c.037-.005.073-.014.109-.023a1.228,1.228,0,0,0,.817-.65l1.6-3.238,1.6,3.238a1.229,1.229,0,0,0,.925.672l3.573.519Z" transform="translate(1006.225 463.214)" fill="#f5fafa"/>
    </g>
    <g id="Group_1319" data-name="Group 1319" transform="translate(13 80)">
      <path id="Path_1009" data-name="Path 1009" d="M40.18,13.537,28.692,11.867,23.555,1.458a2.615,2.615,0,0,0-4.69,0l-4.52,9.159-.617,1.251L9.379,12.5,2.239,13.537A2.615,2.615,0,0,0,.79,18l6.918,6.744L9.1,26.1l-.791,4.611L7.14,37.542A2.615,2.615,0,0,0,10.934,40.3L21.21,34.9l10.275,5.4a2.615,2.615,0,0,0,3.794-2.757L33.317,26.1,41.63,18a2.615,2.615,0,0,0-1.449-4.461Zm-11.5,9.778a2.614,2.614,0,0,0-.752,2.315l1.3,7.574-6.8-3.576a2.615,2.615,0,0,0-2.434,0l-6.8,3.576,1.3-7.574a2.647,2.647,0,0,0-.752-2.315l-3.222-3.141-2.28-2.223,2.629-.382,4.976-.723c.078-.011.155-.03.231-.048a2.613,2.613,0,0,0,1.738-1.382l3.4-6.891,3.4,6.891a2.615,2.615,0,0,0,1.969,1.43l7.6,1.105Z" transform="matrix(-0.999, 0.035, -0.035, -0.999, 776.495, 322.869)" fill="#f5fafa"/>
      <path id="Path_1010" data-name="Path 1010" d="M22.459,7.566l-6.421-.933L13.166.815a1.462,1.462,0,0,0-2.622,0L8.018,5.934l-.345.7-2.431.353-3.99.58a1.462,1.462,0,0,0-.81,2.493l3.867,3.769.779.76-.442,2.578-.655,3.818a1.462,1.462,0,0,0,2.121,1.541l5.743-3.019L17.6,22.525a1.462,1.462,0,0,0,2.121-1.541l-1.1-6.4,4.646-4.529a1.462,1.462,0,0,0-.81-2.493Zm-6.427,5.465a1.461,1.461,0,0,0-.42,1.294l.726,4.233-3.8-2a1.461,1.461,0,0,0-1.36,0l-3.8,2L8.1,14.326a1.479,1.479,0,0,0-.42-1.294l-1.8-1.756L4.6,10.034,6.072,9.82l2.781-.4c.044-.006.087-.017.129-.027a1.46,1.46,0,0,0,.971-.773l1.9-3.852,1.9,3.852a1.462,1.462,0,0,0,1.1.8l4.251.618Z" transform="matrix(-0.999, 0.035, -0.035, -0.999, 737.169, 278.569)" fill="#f5fafa"/>
    </g>
  </g>
</svg>
