<svg xmlns="http://www.w3.org/2000/svg" xmlns:xlink="http://www.w3.org/1999/xlink" width="1600" height="960" viewBox="0 0 1600 960">
  <defs>
    <linearGradient id="linear-gradient" x1="0.519" y1="1" x2="0.52" gradientUnits="objectBoundingBox">
      <stop offset="0" stop-color="#449aa3"/>
      <stop offset="1" stop-color="#4ebac5"/>
    </linearGradient>
    <clipPath id="clip-Confirmation_with_kol_8">
      <rect width="1600" height="960"/>
    </clipPath>
  </defs>
  <g id="Confirmation_with_kol_8" data-name="Confirmation_with_kol – 8" clip-path="url(#clip-Confirmation_with_kol_8)">
    <rect width="1600" height="960" fill="#f7f7fa"/>
    <g id="Group_1482" data-name="Group 1482">
      <rect id="____2x" width="1600" height="960" fill="url(#linear-gradient)"/>
      <path id="Intersection_6" data-name="Intersection 6" d="M-1760.19-697.1c-169.395-129.82,45.29-303.649,135.942-366.8h.886v546.406C-1636.345-567.773-1672.978-630.263-1760.19-697.1Z" transform="translate(3223.778 1063.895)" fill="#fff" opacity="0.08"/>
      <path id="Intersection_7" data-name="Intersection 7" d="M57.81,328.491V81.413q9.728-7.36,20.575-14.15C192.372-3.949,287.882,69.127,393.73,142.2c94.416,65.184,197.06,130.371,328.379,93.153,123.6-35.031,219.245,11.952,272.527,93.133Z" transform="translate(-57.81 631.808)" fill="#fff" opacity="0.08"/>
    </g>
    <g id="Group_1487" data-name="Group 1487" transform="translate(16803.996 -1805.303)" opacity="0.12">
      <path id="Path_1000" data-name="Path 1000" d="M338.043,255.243A252.229,252.229,0,0,0,85.1,2.3V123.377A131.486,131.486,0,0,1,216.966,255.243Z" transform="translate(-16534.223 1732.127)" fill="#fff"/>
      <path id="Path_1001" data-name="Path 1001" d="M388.59,278.318C387.391,127.271,262.717.2,109.273.2A26.607,26.607,0,0,0,82.9,26.573V147.65a26.607,26.607,0,0,0,26.373,26.373c58.74,1.2,104.294,46.753,105.493,105.493a26.607,26.607,0,0,0,26.373,26.373H362.216c33.566,0,33.566-52.746,0-52.746H241.139l26.373,26.373c-2.4-87.511-70.728-155.842-158.239-158.239l26.373,26.373V25.374L109.273,51.748c124.674,0,225.371,103.1,226.57,226.57,1.2,34.765,53.945,34.765,52.747,0" transform="translate(-16558.404 1709.053)" fill="#fff"/>
      <path id="Path_1002" data-name="Path 1002" d="M85.1,288.543A252.228,252.228,0,0,0,338.043,35.6H216.966A131.486,131.486,0,0,1,85.1,167.466Z" transform="translate(-16534.223 2098.022)" fill="#fff" fill-rule="evenodd"/>
      <path id="Path_1003" data-name="Path 1003" d="M109.273,339.09A283.539,283.539,0,0,0,388.59,59.773,26.607,26.607,0,0,0,362.216,33.4H241.139a26.607,26.607,0,0,0-26.373,26.373c-1.2,58.74-46.753,104.294-105.493,105.493A26.607,26.607,0,0,0,82.9,191.639V312.716c0,33.566,52.746,33.566,52.746,0V190.441l-26.373,26.373c87.511-2.4,155.842-70.728,158.239-158.239L241.139,84.948H362.216L335.843,58.574c-1.2,124.673-101.9,225.371-226.57,226.57-33.566,1.2-33.566,53.945,0,53.945" transform="translate(-16558.404 2073.848)" fill="#fff"/>
      <path id="Path_1004" data-name="Path 1004" d="M51.9,36.7A252.229,252.229,0,0,0,304.843,289.642V167.366A131.486,131.486,0,0,1,172.977,35.5H51.9Z" transform="translate(-16899.027 2096.923)" fill="#fff" fill-rule="evenodd"/>
      <path id="Path_1005" data-name="Path 1005" d="M49.7,60.872C52.1,211.919,175.572,338.99,329.016,338.99a26.607,26.607,0,0,0,26.373-26.373V191.539a26.607,26.607,0,0,0-26.373-26.373c-58.74-1.2-104.294-46.753-105.493-105.493A26.607,26.607,0,0,0,197.15,33.3H76.073c-33.566,0-33.566,52.746,0,52.746H197.15L170.777,59.673c2.4,87.511,70.728,155.842,158.239,158.239l-26.373-26.373V312.616l26.373-26.373c-124.673,0-225.371-103.1-226.57-226.57,0-33.566-52.746-33.566-52.746,1.2" transform="translate(-16923.189 2072.75)" fill="#fff"/>
      <path id="Path_1006" data-name="Path 1006" d="M304.843,2.3A252.228,252.228,0,0,0,51.9,255.243H172.977A131.486,131.486,0,0,1,304.843,123.377Z" transform="translate(-16899.027 1732.127)" fill="#fff" fill-rule="evenodd"/>
      <path id="Path_1007" data-name="Path 1007" d="M329.016.218C175.572,1.417,52.1,126.091,49.7,278.336a26.607,26.607,0,0,0,26.373,26.373H197.15a26.607,26.607,0,0,0,26.373-26.373c1.2-58.74,46.753-104.294,105.493-105.493A26.607,26.607,0,0,0,355.39,146.47V25.393c0-33.566-52.746-33.566-52.746,0V146.47L329.016,120.1c-87.511,2.4-155.842,70.728-158.239,158.239l26.373-26.373H76.073l26.373,26.373c1.2-124.673,101.9-225.371,226.57-226.57,33.566,0,33.566-52.746,0-51.548" transform="translate(-16923.189 1709.035)" fill="#fff"/>
    </g>
  </g>
</svg>
