<svg xmlns="http://www.w3.org/2000/svg" width="69.098" height="69.098" viewBox="0 0 69.098 69.098">
  <g id="Group_1803" data-name="Group 1803" transform="translate(-58.502 -0.233)">
    <path id="Path_1001" data-name="Path 1001" d="M112.916,27.509A27.66,27.66,0,0,0,85.49.2,2.613,2.613,0,0,0,82.9,2.79V14.678a2.613,2.613,0,0,0,2.59,2.59A10.45,10.45,0,0,1,95.848,27.627a2.613,2.613,0,0,0,2.59,2.59h11.889c3.3,0,3.3-5.179,0-5.179H98.438l2.59,2.59A15.834,15.834,0,0,0,85.49,12.089l2.59,2.59V2.672l-2.59,2.59a22.459,22.459,0,0,1,22.247,22.247c.118,3.414,5.3,3.414,5.179,0" transform="translate(14.682 0.035)" fill="#449aa2"/>
    <path id="Path_1003" data-name="Path 1003" d="M85.49,63.416A27.841,27.841,0,0,0,112.916,35.99a2.613,2.613,0,0,0-2.59-2.59H98.438a2.613,2.613,0,0,0-2.59,2.59A10.45,10.45,0,0,1,85.49,46.348a2.613,2.613,0,0,0-2.59,2.59V60.827c0,3.3,5.179,3.3,5.179,0V48.82l-2.59,2.59a15.834,15.834,0,0,0,15.538-15.538l-2.59,2.59h11.889l-2.59-2.59A22.459,22.459,0,0,1,85.49,58.119c-3.3.118-3.3,5.3,0,5.3" transform="translate(14.682 5.915)" fill="#449aa2"/>
    <path id="Path_1005" data-name="Path 1005" d="M49.7,36.007c.235,14.832,12.36,27.309,27.427,27.309a2.613,2.613,0,0,0,2.59-2.59V48.838a2.613,2.613,0,0,0-2.59-2.59A10.45,10.45,0,0,1,66.768,35.89a2.613,2.613,0,0,0-2.59-2.59H52.29c-3.3,0-3.3,5.179,0,5.179H64.178l-2.59-2.59A15.834,15.834,0,0,0,77.127,51.427l-2.59-2.59V60.727l2.59-2.59A22.459,22.459,0,0,1,54.879,35.89c0-3.3-5.179-3.3-5.179.118" transform="translate(8.802 5.898)" fill="#449aa2"/>
    <g id="Group_1802" data-name="Group 1802">
      <path id="Path_1000" data-name="Path 1000" d="M109.937,27.137A24.767,24.767,0,0,0,85.1,2.3V14.189A12.911,12.911,0,0,1,98.048,27.137Z" transform="translate(15.072 0.407)" fill="#449aa2"/>
      <path id="Path_1002" data-name="Path 1002" d="M85.1,60.437A24.767,24.767,0,0,0,109.937,35.6H98.048A12.911,12.911,0,0,1,85.1,48.548Z" transform="translate(15.072 6.305)" fill="#449aa2" fill-rule="evenodd"/>
      <path id="Path_1004" data-name="Path 1004" d="M51.9,35.618A24.767,24.767,0,0,0,76.737,60.455V48.448A12.911,12.911,0,0,1,63.789,35.5H51.9Z" transform="translate(9.192 6.287)" fill="#449aa2" fill-rule="evenodd"/>
      <path id="Path_1006" data-name="Path 1006" d="M76.737,2.3A24.767,24.767,0,0,0,51.9,27.137H63.789A12.911,12.911,0,0,1,76.737,14.189Z" transform="translate(9.192 0.407)" fill="#449aa2" fill-rule="evenodd"/>
    </g>
    <path id="Path_1007" data-name="Path 1007" d="M77.127.2A27.739,27.739,0,0,0,49.7,27.509a2.613,2.613,0,0,0,2.59,2.59H64.178a2.613,2.613,0,0,0,2.59-2.59A10.45,10.45,0,0,1,77.127,17.151a2.613,2.613,0,0,0,2.59-2.59V2.672c0-3.3-5.179-3.3-5.179,0V14.561l2.59-2.59A15.834,15.834,0,0,0,61.589,27.509l2.59-2.59H52.29l2.59,2.59A22.459,22.459,0,0,1,77.127,5.262c3.3,0,3.3-5.179,0-5.062" transform="translate(8.802 0.035)" fill="#449aa2"/>
  </g>
</svg>
