<svg xmlns="http://www.w3.org/2000/svg" width="18.299" height="18.3" viewBox="0 0 18.299 18.3">
  <g id="Group_1375" data-name="Group 1375" transform="translate(0.149 0.15)">
    <path id="Path_1073" data-name="Path 1073" d="M15.5,38.136a1.891,1.891,0,0,0-1.369-.625,1.956,1.956,0,0,0-1.385.621l-1.28,1.27c-.105-.056-.211-.109-.312-.161-.146-.073-.284-.141-.4-.214A13.889,13.889,0,0,1,7.417,36a8.165,8.165,0,0,1-1.094-1.718c.332-.3.64-.617.94-.919.113-.113.227-.23.34-.343a1.845,1.845,0,0,0,0-2.79L6.5,29.132c-.126-.125-.255-.254-.377-.383-.243-.25-.5-.508-.761-.75A1.921,1.921,0,0,0,4,27.406,1.988,1.988,0,0,0,2.625,28l-.008.008L1.24,29.39a2.944,2.944,0,0,0-.879,1.875A7.041,7.041,0,0,0,.88,34.257a17.346,17.346,0,0,0,3.1,5.145,19.048,19.048,0,0,0,6.347,4.948A9.921,9.921,0,0,0,13.889,45.4c.085,0,.174.008.255.008a3.058,3.058,0,0,0,2.337-1c0-.008.012-.012.016-.02a9.186,9.186,0,0,1,.709-.73c.174-.165.352-.339.527-.52a2.007,2.007,0,0,0,.612-1.4,1.934,1.934,0,0,0-.624-1.383Zm1.45,4.246s0,0,0,0c-.158.169-.32.323-.494.492a10.625,10.625,0,0,0-.782.806,1.957,1.957,0,0,1-1.523.641c-.061,0-.126,0-.186,0a8.814,8.814,0,0,1-3.159-.944,17.98,17.98,0,0,1-5.978-4.661,16.355,16.355,0,0,1-2.916-4.835,5.734,5.734,0,0,1-.454-2.524,1.848,1.848,0,0,1,.559-1.2l1.381-1.375a.923.923,0,0,1,.616-.286.868.868,0,0,1,.591.282l.012.012c.247.23.482.468.729.722.126.129.255.258.385.391L6.834,31a.768.768,0,0,1,0,1.25c-.117.117-.231.234-.348.347-.34.347-.664.669-1.017.984-.008.008-.016.012-.02.02a.82.82,0,0,0-.211.915l.012.036A8.831,8.831,0,0,0,6.558,36.68l0,0a14.843,14.843,0,0,0,3.6,3.258,5.538,5.538,0,0,0,.5.27c.146.073.284.141.4.214.016.008.032.02.049.028a.881.881,0,0,0,.4.1.867.867,0,0,0,.616-.278L13.508,38.9a.918.918,0,0,1,.612-.3.826.826,0,0,1,.583.294l.008.008,2.232,2.222A.8.8,0,0,1,16.947,42.382Z" transform="translate(-0.344 -27.406)" fill="#fff" stroke="#fff" stroke-width="0.3"/>
  </g>
</svg>
