<svg xmlns="http://www.w3.org/2000/svg" width="13.052" height="9.913" viewBox="0 0 13.052 9.913">
  <path id="message-closed-envelope" d="M11.5,45.945H1.549A1.521,1.521,0,0,0,0,47.433V54.37a1.521,1.521,0,0,0,1.549,1.488H11.5a1.521,1.521,0,0,0,1.549-1.488V47.433A1.521,1.521,0,0,0,11.5,45.945Zm0,8.6H1.549c-.126,0-.236-.081-.236-.174V48.35l4.5,3.8a.513.513,0,0,0,.33.121h.76a.513.513,0,0,0,.331-.121l4.5-3.8v6.02C11.738,54.463,11.628,54.545,11.5,54.545ZM6.526,50.967,2.147,47.258H10.9Z" transform="translate(0 -45.945)" fill="#d2d6df"/>
</svg>
