<svg xmlns="http://www.w3.org/2000/svg" xmlns:xlink="http://www.w3.org/1999/xlink" width="48" height="48" viewBox="0 0 48 48">
  <defs>
    <linearGradient id="linear-gradient" x1="0.519" y1="1" x2="0.52" gradientUnits="objectBoundingBox">
      <stop offset="0" stop-color="#449aa3"/>
      <stop offset="1" stop-color="#4ebac5"/>
    </linearGradient>
  </defs>
  <g id="Group_1704" data-name="Group 1704" transform="translate(-665 -289)">
    <rect id="bg" width="48" height="48" rx="24" transform="translate(665 289)" fill="url(#linear-gradient)"/>
    <g id="Group_1431" data-name="Group 1431" transform="translate(680.501 301.438)">
      <g id="Group_1430" data-name="Group 1430" transform="translate(0 0)">
        <path id="Path_1079" data-name="Path 1079" d="M103.681,76.909c-5,0-9.061,4.532-9.061,10.123s4.057,10.123,9.061,10.123,9.061-4.532,9.061-10.123S108.685,76.909,103.681,76.909Zm0,17.8c-3.791,0-6.875-3.446-6.875-7.681s3.084-7.681,6.875-7.681,6.875,3.446,6.875,7.681S107.472,94.713,103.681,94.713Z" transform="translate(-94.62 -76.909)" fill="#fff"/>
      </g>
    </g>
    <g id="Group_1433" data-name="Group 1433" transform="translate(684.472 306.438)">
      <g id="Group_1432" data-name="Group 1432" transform="translate(0 0)">
        <path id="Path_1080" data-name="Path 1080" d="M175.041,152.3a5.032,5.032,0,1,0,5.032,5.032A5.038,5.038,0,0,0,175.041,152.3Z" transform="translate(-170.009 -152.299)" fill="#fff"/>
      </g>
    </g>
    <g id="Group_1435" data-name="Group 1435" transform="translate(700.867 300)">
      <g id="Group_1434" data-name="Group 1434" transform="translate(0 0)">
        <path id="Path_1081" data-name="Path 1081" d="M455.934,62.353V50.28a.271.271,0,0,0-.169-.257.235.235,0,0,0-.276.093,12.164,12.164,0,0,0-2.117,6.9v4.417a.88.88,0,0,0,.836.917h.349c-.344,3.893-.571,9.338-.571,9.976,0,1,.564,1.819,1.259,1.819s1.259-.814,1.259-1.819C456.5,71.692,456.278,66.246,455.934,62.353Z" transform="translate(-453.372 -50.008)" fill="#fff"/>
      </g>
    </g>
    <g id="Group_1437" data-name="Group 1437" transform="translate(674 300.987)">
      <g id="Group_1436" data-name="Group 1436" transform="translate(0 0)">
        <path id="Path_1082" data-name="Path 1082" d="M3.656,77.377a2.715,2.715,0,0,0,1.163-2.27l-.345-6.214a.427.427,0,0,0-.407-.422.432.432,0,0,0-.407.471l.224,4.984a.486.486,0,0,1-.461.507.486.486,0,0,1-.461-.507L2.85,68.944a.463.463,0,0,0-.441-.473.463.463,0,0,0-.441.473l-.112,4.982a.486.486,0,0,1-.461.507.486.486,0,0,1-.461-.507l.224-4.984a.432.432,0,0,0-.407-.471.427.427,0,0,0-.407.422L0,75.107a2.715,2.715,0,0,0,1.163,2.27,1.553,1.553,0,0,1,.648,1.448C1.417,82.73,1.15,89.1,1.15,89.8c0,1.009.564,1.826,1.259,1.826s1.259-.818,1.259-1.826c0-.694-.267-7.068-.661-10.973A1.554,1.554,0,0,1,3.656,77.377Z" transform="translate(0 -68.471)" fill="#fff"/>
      </g>
    </g>
  </g>
</svg>
