<svg xmlns="http://www.w3.org/2000/svg" width="64" height="34.97" viewBox="0 0 64 34.97">
  <g id="Group_83" data-name="Group 83" transform="translate(0)">
    <g id="Group_82" data-name="Group 82" transform="translate(0 0)">
      <path id="Path_362" data-name="Path 362" d="M347.53,117.055a2.872,2.872,0,0,0-2.116-.935h-.852a4.259,4.259,0,0,0-4.26,3.916l-.921,10.535a1.781,1.781,0,0,1-1.782,1.638h-7.975a4.648,4.648,0,0,0-4.635,4.651v.462a2.808,2.808,0,0,0,2.8,2.81H329.5l-1.683,5.517,0,.012-1.287,4.217a.934.934,0,1,0,1.787.549l1.085-3.556H342.21l1.085,3.556a.934.934,0,1,0,1.787-.549l-3.054-10.008a6.837,6.837,0,0,0,1.54-.648.937.937,0,0,0-.929-1.627,4.988,4.988,0,0,1-2.484.662H327.789a.934.934,0,0,1-.931-.935v-.462a2.774,2.774,0,0,1,2.766-2.776H337.6a3.642,3.642,0,0,0,3.643-3.349l.921-10.535a2.4,2.4,0,0,1,2.4-2.205h.852a1,1,0,0,1,1,1.093l-1.276,14.589a5.058,5.058,0,0,1-.208,1.058.935.935,0,1,0,1.784.558,6.959,6.959,0,0,0,.285-1.452l1.276-14.589A2.9,2.9,0,0,0,347.53,117.055Zm-16.078,23.077h8.7L341.638,145h-11.67Z" transform="translate(-284.284 -116.12)" fill="#449aa3"/>
      <path id="Path_363" data-name="Path 363" d="M18.661,132.21H10.686A1.781,1.781,0,0,1,8.9,130.572l-.921-10.535a4.259,4.259,0,0,0-4.26-3.916H2.871a2.877,2.877,0,0,0-2.859,3.132l1.276,14.589a6.887,6.887,0,0,0,4.969,6.03L3.2,149.879a.934.934,0,1,0,1.787.549l1.085-3.556H18.889l1.085,3.556a.934.934,0,1,0,1.787-.549l-1.287-4.217,0-.012-1.683-5.517H20.5a2.808,2.808,0,0,0,2.8-2.81v-.462A4.648,4.648,0,0,0,18.661,132.21ZM6.647,145l1.484-4.864h8.7L18.316,145Zm14.781-7.673a.934.934,0,0,1-.931.935H8.13a5.1,5.1,0,0,1-.59-.035h0a4.978,4.978,0,0,1-4.391-4.544L1.873,119.089a1,1,0,0,1,1-1.093h.852a2.4,2.4,0,0,1,2.4,2.205l.921,10.535h0a3.642,3.642,0,0,0,3.643,3.349h7.975a2.774,2.774,0,0,1,2.766,2.776v.462Z" transform="translate(-0.001 -116.121)" fill="#449aa3"/>
      <path id="Path_364" data-name="Path 364" d="M144.054,191.69a3.383,3.383,0,0,0-3.277-2.517h-.582V172.166h11.58a2.207,2.207,0,0,0,1.713-.808,2.177,2.177,0,0,0,.452-1.83,4.259,4.259,0,0,0-4.163-3.372H130.226a.934.934,0,1,0,0,1.868h19.551a2.374,2.374,0,0,1,2.32,1.879.322.322,0,0,1-.067.273.326.326,0,0,1-.255.12H122.052a.326.326,0,0,1-.255-.12.321.321,0,0,1-.067-.273,2.374,2.374,0,0,1,2.32-1.88h1.766a.934.934,0,1,0,0-1.868H124.05a4.259,4.259,0,0,0-4.163,3.372,2.177,2.177,0,0,0,.452,1.83,2.207,2.207,0,0,0,1.713.808h11.58v17.008h-.582a3.383,3.383,0,0,0-3.277,2.517l-.221.843a1.768,1.768,0,0,0,.318,1.544,1.792,1.792,0,0,0,1.424.695h11.238a1.792,1.792,0,0,0,1.424-.695,1.767,1.767,0,0,0,.318-1.544Zm-8.541-19.524h2.8v17.008h-2.8ZM131.4,192.9l.195-.743a1.5,1.5,0,0,1,1.456-1.119h7.727a1.5,1.5,0,0,1,1.456,1.119l.195.743Z" transform="translate(-104.913 -159.802)" fill="#449aa3"/>
    </g>
  </g>
</svg>
