<svg xmlns="http://www.w3.org/2000/svg" width="30" height="30" viewBox="0 0 30 30">
  <g id="Group_1448" data-name="Group 1448" transform="translate(-100)">
    <path id="Path_1096" data-name="Path 1096" d="M1515.056,263.463a10.329,10.329,0,0,0,16.58,8.229l2.094,2.093a.351.351,0,0,0,.041.037,2.63,2.63,0,0,0-.054.527,2.541,2.541,0,0,0,.749,1.809l6.221,6.221a2.559,2.559,0,1,0,3.619-3.62l-6.22-6.22a2.556,2.556,0,0,0-2.336-.7.511.511,0,0,0-.037-.042l-2.094-2.093a10.333,10.333,0,1,0-18.563-6.246Zm20.7,12.611,2.245-2.245,5.617,5.618a1.587,1.587,0,1,1-2.245,2.244Zm-1.068-1.725a1.586,1.586,0,0,1,2.621-1.2l-2.237,2.237A1.573,1.573,0,0,1,1534.689,274.349Zm-2.3-3.284q.316-.291.609-.608l1.8,1.8a2.51,2.51,0,0,0-.609.608Zm-16.356-7.6a9.363,9.363,0,1,1,9.363,9.363A9.374,9.374,0,0,1,1516.028,263.463Z" transform="translate(-1415.056 -253.128)" fill="#ff6969"/>
    <path id="Path_1097" data-name="Path 1097" d="M1524.917,259.023v.587a2.315,2.315,0,0,0,.473,4.581,1.368,1.368,0,0,1,0,2.735h-.007a1.369,1.369,0,0,1-1.364-1.367.473.473,0,1,0-.947,0,2.32,2.32,0,0,0,1.841,2.266v.671a.474.474,0,0,0,.947,0v-.671a2.315,2.315,0,0,0-.474-4.581,1.367,1.367,0,1,1,1.369-1.368.474.474,0,0,0,.947,0,2.321,2.321,0,0,0-1.842-2.266v-.587a.474.474,0,0,0-.947,0Z" transform="translate(-1415.056 -253.128)" fill="#ff6969"/>
  </g>
</svg>
