<svg id="Group_98" data-name="Group 98" xmlns="http://www.w3.org/2000/svg" width="151.096" height="151.096" viewBox="0 0 151.096 151.096">
  <path id="Path_370" data-name="Path 370" d="M47.217,0H0V47.217H47.217ZM37.774,37.774H9.443V9.443h28.33Z" fill="#454f63"/>
  <rect id="Rectangle_1517" data-name="Rectangle 1517" width="9.443" height="9.443" transform="translate(18.887 18.887)" fill="#454f63"/>
  <path id="Path_371" data-name="Path 371" d="M352,0V47.217h47.217V0Zm37.774,37.774h-28.33V9.443h28.33Z" transform="translate(-248.122)" fill="#454f63"/>
  <rect id="Rectangle_1518" data-name="Rectangle 1518" width="9.443" height="9.443" transform="translate(122.765 18.887)" fill="#454f63"/>
  <path id="Path_372" data-name="Path 372" d="M0,399.217H47.217V352H0Zm9.443-37.774h28.33v28.33H9.443Z" transform="translate(0 -248.122)" fill="#454f63"/>
  <rect id="Rectangle_1519" data-name="Rectangle 1519" width="9.443" height="9.443" transform="translate(18.887 122.765)" fill="#454f63"/>
  <rect id="Rectangle_1520" data-name="Rectangle 1520" width="18.887" height="9.443" transform="translate(75.548)" fill="#454f63"/>
  <path id="Path_373" data-name="Path 373" d="M210.887,60.33h9.443V50.887h9.443V41.443h-28.33V32H192V50.887h18.887Z" transform="translate(-135.339 -22.557)" fill="#454f63"/>
  <rect id="Rectangle_1521" data-name="Rectangle 1521" width="9.443" height="9.443" transform="translate(56.661 37.774)" fill="#454f63"/>
  <path id="Path_374" data-name="Path 374" d="M229.774,160H220.33v9.443H192v9.443h37.774Z" transform="translate(-135.339 -112.783)" fill="#454f63"/>
  <path id="Path_375" data-name="Path 375" d="M9.443,220.33h9.443v-9.443H9.443V192H0v37.774H9.443Z" transform="translate(0 -135.339)" fill="#454f63"/>
  <rect id="Rectangle_1522" data-name="Rectangle 1522" width="9.443" height="9.443" transform="translate(18.887 56.661)" fill="#454f63"/>
  <path id="Path_376" data-name="Path 376" d="M124.33,229.774h18.887V220.33h-9.443v-9.443H114.887V192h-9.443v18.887H96v18.887h9.443V220.33H124.33Z" transform="translate(-67.67 -135.339)" fill="#454f63"/>
  <rect id="Rectangle_1523" data-name="Rectangle 1523" width="9.443" height="18.887" transform="translate(84.991 75.548)" fill="#454f63"/>
  <path id="Path_377" data-name="Path 377" d="M220.33,352H192v9.443h18.887v28.33H192v9.443h28.33v-9.443h18.887V380.33H220.33Z" transform="translate(-135.339 -248.122)" fill="#454f63"/>
  <rect id="Rectangle_1524" data-name="Rectangle 1524" width="9.443" height="9.443" transform="translate(56.661 122.765)" fill="#454f63"/>
  <rect id="Rectangle_1525" data-name="Rectangle 1525" width="9.443" height="18.887" transform="translate(94.435 103.878)" fill="#454f63"/>
  <path id="Path_378" data-name="Path 378" d="M412.33,416H384v28.33h9.443V425.443H412.33Z" transform="translate(-270.678 -293.235)" fill="#454f63"/>
  <rect id="Rectangle_1526" data-name="Rectangle 1526" width="18.887" height="9.443" transform="translate(132.209 141.652)" fill="#454f63"/>
  <rect id="Rectangle_1527" data-name="Rectangle 1527" width="9.443" height="9.443" transform="translate(141.652 103.878)" fill="#454f63"/>
  <path id="Path_379" data-name="Path 379" d="M361.443,316.33h9.443V288H352v9.443h9.443Z" transform="translate(-248.122 -203.009)" fill="#454f63"/>
  <path id="Path_380" data-name="Path 380" d="M380.33,201.443h-9.443V192h-9.443v9.443H352v9.443h37.774v-9.443h9.443V192H380.33Z" transform="translate(-248.122 -135.339)" fill="#454f63"/>
  <rect id="Rectangle_1528" data-name="Rectangle 1528" width="18.887" height="9.443" transform="translate(132.209 84.991)" fill="#454f63"/>
</svg>
