<svg xmlns="http://www.w3.org/2000/svg" width="13.877" height="12.935" viewBox="0 0 13.877 12.935">
  <g id="upload" transform="translate(0.5 0.5)">
    <g id="Group_1255" data-name="Group 1255">
      <path id="Path_1001" data-name="Path 1001" d="M12.509,228.2a.367.367,0,0,0-.369.369v3.356a1.656,1.656,0,0,1-1.653,1.653H2.391A1.656,1.656,0,0,1,.738,231.93v-3.411a.369.369,0,0,0-.738,0v3.411a2.394,2.394,0,0,0,2.391,2.391h8.095a2.394,2.394,0,0,0,2.391-2.391v-3.356A.369.369,0,0,0,12.509,228.2Z" transform="translate(0 -222.386)" fill="#fff" stroke="#fff" stroke-width="1"/>
      <path id="Path_1002" data-name="Path 1002" d="M136.953,20.226l1.716-1.716V26a.369.369,0,1,0,.738,0V18.51l1.716,1.716a.371.371,0,0,0,.26.109.356.356,0,0,0,.26-.109.368.368,0,0,0,0-.522L139.3,17.359a.373.373,0,0,0-.26-.109.357.357,0,0,0-.26.109L136.434,19.7a.368.368,0,0,0,.519.522Z" transform="translate(-132.599 -17.25)" fill="#fff" stroke="#fff" stroke-width="1"/>
    </g>
  </g>
</svg>
