<svg xmlns="http://www.w3.org/2000/svg" width="11.373" height="11.373" viewBox="0 0 11.373 11.373">
  <g id="Group_1706" data-name="Group 1706" transform="translate(-827 -462)">
    <path id="Path_1000" data-name="Path 1000" d="M89.188,6.388A4.076,4.076,0,0,0,85.1,2.3V4.257a2.125,2.125,0,0,1,2.131,2.131Z" transform="translate(748.758 460.107)" fill="#439aa1"/>
    <path id="Path_1001" data-name="Path 1001" d="M87.841,4.695A4.553,4.553,0,0,0,83.326.2.43.43,0,0,0,82.9.626V2.583a.43.43,0,0,0,.426.426,1.72,1.72,0,0,1,1.7,1.7.43.43,0,0,0,.426.426h1.957a.427.427,0,0,0,0-.852H85.457l.426.426a2.606,2.606,0,0,0-2.557-2.557l.426.426V.607l-.426.426a3.7,3.7,0,0,1,3.662,3.662.426.426,0,0,0,.852,0" transform="translate(750.531 461.8)" fill="#439aa1"/>
    <path id="Path_1002" data-name="Path 1002" d="M85.1,39.688A4.076,4.076,0,0,0,89.188,35.6H87.231A2.125,2.125,0,0,1,85.1,37.731Z" transform="translate(748.758 433.259)" fill="#439aa1" fill-rule="evenodd"/>
    <path id="Path_1003" data-name="Path 1003" d="M83.326,38.341a4.583,4.583,0,0,0,4.514-4.514.43.43,0,0,0-.426-.426H85.457a.43.43,0,0,0-.426.426,1.72,1.72,0,0,1-1.7,1.7.43.43,0,0,0-.426.426v1.957a.427.427,0,0,0,.852,0V35.938l-.426.426a2.606,2.606,0,0,0,2.557-2.557l-.426.426h1.957l-.426-.426a3.7,3.7,0,0,1-3.662,3.662.437.437,0,0,0,0,.872" transform="translate(750.531 435.033)" fill="#439aa1"/>
    <path id="Path_1004" data-name="Path 1004" d="M51.9,35.519a4.076,4.076,0,0,0,4.088,4.088V37.631A2.125,2.125,0,0,1,53.857,35.5H51.9Z" transform="translate(775.525 433.339)" fill="#439aa1" fill-rule="evenodd"/>
    <path id="Path_1005" data-name="Path 1005" d="M49.7,33.746a4.566,4.566,0,0,0,4.514,4.495.43.43,0,0,0,.426-.426V35.857a.43.43,0,0,0-.426-.426,1.72,1.72,0,0,1-1.7-1.7.43.43,0,0,0-.426-.426H50.126a.427.427,0,0,0,0,.852h1.957l-.426-.426a2.606,2.606,0,0,0,2.557,2.557l-.426-.426v1.957l.426-.426a3.7,3.7,0,0,1-3.662-3.662.427.427,0,0,0-.852.019" transform="translate(777.301 435.113)" fill="#439aa1"/>
    <path id="Path_1006" data-name="Path 1006" d="M55.988,2.3A4.076,4.076,0,0,0,51.9,6.388h1.957a2.125,2.125,0,0,1,2.131-2.131Z" transform="translate(775.525 460.107)" fill="#439aa1" fill-rule="evenodd"/>
    <path id="Path_1007" data-name="Path 1007" d="M54.214.2A4.566,4.566,0,0,0,49.7,4.694a.43.43,0,0,0,.426.426h1.957a.43.43,0,0,0,.426-.426,1.72,1.72,0,0,1,1.7-1.7.43.43,0,0,0,.426-.426V.606a.427.427,0,0,0-.852,0V2.562l.426-.426a2.606,2.606,0,0,0-2.557,2.557l.426-.426H50.126l.426.426a3.7,3.7,0,0,1,3.662-3.662.417.417,0,0,0,0-.833" transform="translate(777.301 461.802)" fill="#439aa1"/>
  </g>
</svg>
