<svg id="Kol_logo-01" xmlns="http://www.w3.org/2000/svg" width="188.453" height="69.332" viewBox="0 0 188.453 69.332">
  <path id="Path_1000" data-name="Path 1000" d="M109.937,27.137A24.767,24.767,0,0,0,85.1,2.3V14.189A12.911,12.911,0,0,1,98.048,27.137Z" transform="translate(15.072 0.407)" fill="#449aa2"/>
  <path id="Path_1001" data-name="Path 1001" d="M112.916,27.509A27.66,27.66,0,0,0,85.49.2,2.613,2.613,0,0,0,82.9,2.79V14.678a2.613,2.613,0,0,0,2.59,2.59A10.45,10.45,0,0,1,95.848,27.627a2.613,2.613,0,0,0,2.59,2.59h11.889c3.3,0,3.3-5.179,0-5.179H98.438l2.59,2.59A15.834,15.834,0,0,0,85.49,12.089l2.59,2.59V2.672l-2.59,2.59a22.459,22.459,0,0,1,22.247,22.247c.118,3.414,5.3,3.414,5.179,0" transform="translate(14.682 0.035)" fill="#449aa2"/>
  <path id="Path_1002" data-name="Path 1002" d="M85.1,60.437A24.767,24.767,0,0,0,109.937,35.6H98.048A12.911,12.911,0,0,1,85.1,48.548Z" transform="translate(15.072 6.305)" fill="#449aa2" fill-rule="evenodd"/>
  <path id="Path_1003" data-name="Path 1003" d="M85.49,63.416A27.841,27.841,0,0,0,112.916,35.99a2.613,2.613,0,0,0-2.59-2.59H98.438a2.613,2.613,0,0,0-2.59,2.59A10.45,10.45,0,0,1,85.49,46.348a2.613,2.613,0,0,0-2.59,2.59V60.827c0,3.3,5.179,3.3,5.179,0V48.82l-2.59,2.59a15.834,15.834,0,0,0,15.538-15.538l-2.59,2.59h11.889l-2.59-2.59A22.459,22.459,0,0,1,85.49,58.119c-3.3.118-3.3,5.3,0,5.3" transform="translate(14.682 5.915)" fill="#449aa2"/>
  <path id="Path_1004" data-name="Path 1004" d="M51.9,35.618A24.767,24.767,0,0,0,76.737,60.455V48.448A12.911,12.911,0,0,1,63.789,35.5H51.9Z" transform="translate(9.192 6.287)" fill="#449aa2" fill-rule="evenodd"/>
  <path id="Path_1005" data-name="Path 1005" d="M49.7,36.007c.235,14.832,12.36,27.309,27.427,27.309a2.613,2.613,0,0,0,2.59-2.59V48.838a2.613,2.613,0,0,0-2.59-2.59A10.45,10.45,0,0,1,66.768,35.89a2.613,2.613,0,0,0-2.59-2.59H52.29c-3.3,0-3.3,5.179,0,5.179H64.178l-2.59-2.59A15.834,15.834,0,0,0,77.127,51.427l-2.59-2.59V60.727l2.59-2.59A22.459,22.459,0,0,1,54.879,35.89c0-3.3-5.179-3.3-5.179.118" transform="translate(8.802 5.898)" fill="#449aa2"/>
  <path id="Path_1006" data-name="Path 1006" d="M76.737,2.3A24.767,24.767,0,0,0,51.9,27.137H63.789A12.911,12.911,0,0,1,76.737,14.189Z" transform="translate(9.192 0.407)" fill="#449aa2" fill-rule="evenodd"/>
  <path id="Path_1007" data-name="Path 1007" d="M77.127.2A27.739,27.739,0,0,0,49.7,27.509a2.613,2.613,0,0,0,2.59,2.59H64.178a2.613,2.613,0,0,0,2.59-2.59A10.45,10.45,0,0,1,77.127,17.151a2.613,2.613,0,0,0,2.59-2.59V2.672c0-3.3-5.179-3.3-5.179,0V14.561l2.59-2.59A15.834,15.834,0,0,0,61.589,27.509l2.59-2.59H52.29l2.59,2.59A22.459,22.459,0,0,1,77.127,5.262c3.3,0,3.3-5.179,0-5.062" transform="translate(8.802 0.035)" fill="#449aa2"/>
  <path id="Path_1008" data-name="Path 1008" d="M29.31,35.078C38.844,44.259,44.73,49.909,48.732,54.5c2,2.354,3.884,5.3,3.884,6.71,0,1.766-1.295,3.884-3.884,6.121-2.354,2-5.179,1.766-6.827,1.766q-2.3,0-5.65-3.884L16.479,42.964V61.209a17.6,17.6,0,0,1-.118,2.943,6.538,6.538,0,0,1-.942,2.472,4.3,4.3,0,0,1-2.472,2,17.034,17.034,0,0,1-4.708.589,12.852,12.852,0,0,1-4-.471,8.068,8.068,0,0,1-2.472-1.177A4.481,4.481,0,0,1,.471,65.682C.235,64.741.118,64.388,0,63.8V9.3C0,7.887,0,5.768.118,5.062A6.538,6.538,0,0,1,1.059,2.59a3.579,3.579,0,0,1,2.472-2A16.422,16.422,0,0,1,8.24,0a12.852,12.852,0,0,1,4,.471,8.068,8.068,0,0,1,2.472,1.177,3.84,3.84,0,0,1,1.295,1.883,8.737,8.737,0,0,1,.471,2.119V27.073Q29.192,12.948,36.961,3.767C39.2,1.177,41.081,0,42.729,0s3.649.942,6,2.943C51.322,5.3,52.617,7.3,52.617,9.064c0,1.413-1.059,3.178-3.06,5.532-1.766,2-4.355,4.826-7.651,8.24-3.414,3.414-6.356,6.356-8.828,8.711Z" fill="#606262"/>
  <path id="Path_1009" data-name="Path 1009" d="M134.879,55.206H160.54a17.531,17.531,0,0,1,2.825.118,8.208,8.208,0,0,1,2,.706,3.477,3.477,0,0,1,1.648,2.119,12.852,12.852,0,0,1,.471,4,12.853,12.853,0,0,1-.471,4,3.118,3.118,0,0,1-1.648,2.119,6.351,6.351,0,0,1-2.119.706,16.682,16.682,0,0,1-2.707.118h-33.9a12.852,12.852,0,0,1-4-.471,8.068,8.068,0,0,1-2.472-1.177,4.481,4.481,0,0,1-1.295-1.883,8.736,8.736,0,0,1-.471-2.119V8.357a25.717,25.717,0,0,1,.118-3.3,6.538,6.538,0,0,1,.942-2.472,3.849,3.849,0,0,1,2.59-2A17.335,17.335,0,0,1,126.875,0a12.852,12.852,0,0,1,4,.471,8.068,8.068,0,0,1,2.472,1.177,4.481,4.481,0,0,1,1.295,1.883,8.736,8.736,0,0,1,.471,2.119V55.206Z" transform="translate(20.969 0)" fill="#606262"/>
</svg>
